<svg width="40" height="45" viewBox="0 0 40 45" fill="none" xmlns="http://www.w3.org/2000/svg">
<g clip-path="url(#clip0_1_1561)">
<path d="M20.0004 25.411C18.6827 25.411 17.3945 24.9714 16.2989 24.1478C15.2033 23.3242 14.3493 22.1536 13.845 20.7841C13.3408 19.4145 13.2088 17.9074 13.4659 16.4535C13.723 14.9995 14.3575 13.664 15.2893 12.6157C16.2211 11.5675 17.4082 10.8536 18.7006 10.5644C19.993 10.2752 21.3326 10.4237 22.55 10.991C23.7674 11.5583 24.808 12.519 25.5401 13.7516C26.2721 14.9841 26.6629 16.4333 26.6629 17.9157C26.6596 19.9025 25.9566 21.8068 24.7078 23.2116C23.4591 24.6164 21.7664 25.4073 20.0004 25.411ZM20.0004 13.4157C19.2093 13.4157 18.4359 13.6796 17.7781 14.1741C17.1203 14.6686 16.6076 15.3714 16.3049 16.1936C16.0021 17.0159 15.9229 17.9207 16.0773 18.7936C16.2316 19.6665 16.6126 20.4684 17.172 21.0977C17.7314 21.727 18.4441 22.1556 19.22 22.3293C19.996 22.5029 20.8002 22.4138 21.5311 22.0732C22.262 21.7326 22.8867 21.1558 23.3263 20.4158C23.7658 19.6758 24.0004 18.8057 24.0004 17.9157C24.0004 16.7222 23.579 15.5777 22.8288 14.7337C22.0787 13.8898 21.0613 13.4157 20.0004 13.4157Z" fill="#3639A4"/>
<path d="M33.3375 26.9156C32.2818 26.9156 31.2499 26.5635 30.3721 25.9037C29.4944 25.2439 28.8103 24.306 28.4063 23.2088C28.0023 22.1116 27.8966 20.9043 28.1026 19.7395C28.3085 18.5747 28.8169 17.5048 29.5633 16.665C30.3098 15.8252 31.2608 15.2533 32.2962 15.0216C33.3316 14.7899 34.4048 14.9089 35.3801 15.3633C36.3554 15.8178 37.189 16.5874 37.7755 17.5749C38.362 18.5624 38.675 19.7233 38.675 20.9109C38.675 22.5035 38.1127 24.0308 37.1117 25.1569C36.1107 26.283 34.7531 26.9156 33.3375 26.9156ZM33.3375 17.9156C32.8109 17.9156 32.2961 18.0913 31.8583 18.4204C31.4205 18.7496 31.0792 19.2174 30.8777 19.7647C30.6762 20.312 30.6234 20.9143 30.7262 21.4953C30.8289 22.0763 31.0825 22.61 31.4548 23.0289C31.8272 23.4478 32.3016 23.7331 32.8181 23.8487C33.3345 23.9643 33.8699 23.905 34.3564 23.6782C34.8429 23.4515 35.2587 23.0676 35.5513 22.575C35.8439 22.0825 36 21.5034 36 20.9109C35.9967 20.1177 35.7151 19.3579 35.2165 18.797C34.7179 18.2361 34.0426 17.9193 33.3375 17.9156Z" fill="#3639A4"/>
<path d="M6.66367 26.9156C5.60801 26.9156 4.57606 26.5635 3.69832 25.9037C2.82057 25.2439 2.13645 24.306 1.73247 23.2088C1.32848 22.1116 1.22278 20.9043 1.42873 19.7395C1.63468 18.5747 2.14303 17.5048 2.88949 16.665C3.63595 15.8252 4.587 15.2533 5.62238 15.0216C6.65775 14.7899 7.73094 14.9089 8.70624 15.3633C9.68154 15.8178 10.5151 16.5874 11.1016 17.5749C11.6881 18.5624 12.0012 19.7233 12.0012 20.9109C12.0012 22.5035 11.4388 24.0308 10.4379 25.1569C9.43688 26.283 8.07926 26.9156 6.66367 26.9156ZM6.66367 17.9156C6.13708 17.9156 5.62231 18.0913 5.18447 18.4204C4.74662 18.7496 4.40536 19.2174 4.20384 19.7647C4.00233 20.312 3.9496 20.9143 4.05233 21.4953C4.15506 22.0763 4.40864 22.61 4.781 23.0289C5.15336 23.4478 5.62777 23.7331 6.14424 23.8487C6.66072 23.9643 7.19606 23.905 7.68256 23.6782C8.16907 23.4515 8.5849 23.0676 8.87746 22.575C9.17002 22.0825 9.32617 21.5034 9.32617 20.9109C9.32288 20.1177 9.04131 19.3579 8.54271 18.797C8.04411 18.2361 7.3688 17.9193 6.66367 17.9156Z" fill="#3639A4"/>
<path d="M28.0008 37.1391C27.6629 37.1364 27.3384 36.9899 27.0926 36.729C26.8468 36.4681 26.6979 36.1122 26.6758 35.7329C26.5639 34.4449 26.0293 33.25 25.1764 32.3816C24.3236 31.5131 23.2136 31.0334 22.0633 31.036H17.9383C16.7879 31.0334 15.678 31.5131 14.8251 32.3816C13.9723 33.25 13.4377 34.4449 13.3258 35.7329C13.2618 36.1003 13.0783 36.4276 12.8112 36.651C12.5441 36.8743 12.2126 36.9776 11.8814 36.9407C11.5503 36.9038 11.2432 36.7293 11.0203 36.4514C10.7973 36.1734 10.6745 35.812 10.6758 35.4376C10.8676 33.4238 11.7162 31.5615 13.0576 30.2109C14.3991 28.8602 16.138 28.117 17.9383 28.1251H22.0633C23.8752 28.1191 25.6239 28.874 26.9671 30.2421C28.3104 31.6102 29.1514 33.493 29.3258 35.5219C29.3429 35.723 29.3238 35.9259 29.2698 36.1185C29.2157 36.3111 29.1277 36.4894 29.0111 36.643C28.8945 36.7965 28.7515 36.9221 28.5908 37.0121C28.4301 37.1022 28.255 37.155 28.0758 37.1673L28.0008 37.1391Z" fill="#3639A4"/>
<path d="M38.6622 36.1267C38.3243 36.124 37.9998 35.9774 37.754 35.7166C37.5082 35.4557 37.3593 35.0998 37.3372 34.7205C37.2746 33.9845 36.969 33.3018 36.4806 32.8071C35.9923 32.3124 35.3568 32.0417 34.6997 32.0486H31.9497C31.6873 32.0499 31.4265 32.0925 31.1747 32.1752C31.0003 32.285 30.8063 32.3495 30.6069 32.3639C30.4075 32.3784 30.2078 32.3423 30.0224 32.2585C29.837 32.1747 29.6706 32.0452 29.5355 31.8796C29.4004 31.7139 29.3001 31.5163 29.2418 31.3013C29.1835 31.0863 29.1688 30.8593 29.1987 30.6371C29.2286 30.4148 29.3024 30.2029 29.4147 30.0169C29.5269 29.831 29.6748 29.6757 29.8474 29.5625C30.02 29.4492 30.213 29.381 30.4122 29.3626C30.9114 29.1965 31.4291 29.1112 31.9497 29.1095H34.6997C36.0197 29.099 37.2955 29.6444 38.2763 30.6385C39.257 31.6325 39.8718 33.0033 39.9997 34.4814C40.0168 34.6825 39.9977 34.8853 39.9437 35.0779C39.8896 35.2705 39.8016 35.4489 39.685 35.6025C39.5683 35.756 39.4254 35.8815 39.2647 35.9716C39.104 36.0617 38.9289 36.1144 38.7497 36.1267H38.6622Z" fill="#3639A4"/>
<path d="M1.33773 36.1266H1.25023C1.07103 36.1143 0.895865 36.0616 0.735174 35.9715C0.574483 35.8814 0.431555 35.7559 0.314909 35.6024C0.198263 35.4488 0.110287 35.2704 0.0562243 35.0778C0.00216136 34.8853 -0.0168818 34.6824 0.000229777 34.4813C0.127956 33.0057 0.740933 31.6368 1.71903 30.6431C2.69713 29.6494 3.96984 29.1025 5.28773 29.1094H8.03773C8.55832 29.1112 9.07603 29.1964 9.57523 29.3626C9.77438 29.3809 9.96736 29.4492 10.14 29.5624C10.3126 29.6756 10.4605 29.8309 10.5727 30.0169C10.685 30.2028 10.7588 30.4147 10.7887 30.637C10.8186 30.8592 10.8039 31.0862 10.7456 31.3012C10.6873 31.5162 10.5869 31.7138 10.4519 31.8795C10.3168 32.0451 10.1504 32.1746 9.96502 32.2584C9.77962 32.3423 9.57987 32.3783 9.38047 32.3638C9.18106 32.3494 8.98707 32.2849 8.81273 32.1751C8.56091 32.0924 8.30005 32.0498 8.03773 32.0485H5.28773C4.63061 32.0416 3.9951 32.3123 3.50677 32.807C3.01843 33.3017 2.71279 33.9845 2.65023 34.7204C2.62831 35.0973 2.48115 35.4512 2.238 35.7118C1.99484 35.9723 1.67347 36.1204 1.33773 36.1266Z" fill="#3639A4"/>
</g>
<defs>
<clipPath id="clip0_1_1561">
<rect width="40" height="45" fill="white"/>
</clipPath>
</defs>
</svg>
