<svg width="40" height="40" viewBox="0 0 40 40" fill="none" xmlns="http://www.w3.org/2000/svg">
<g clip-path="url(#clip0_1_1515)">
<path d="M23.3333 15.1499L38.0167 18.0666C39.2 18.3166 40 19.3166 40 20.4999V37.4999C40 38.8833 38.8833 39.9999 37.5 39.9999H22.5C22.9667 39.9999 23.3333 39.6333 23.3333 39.1666V38.3333H37.5C37.95 38.3333 38.3333 37.9666 38.3333 37.4999V20.4999C38.3333 20.1166 38.0667 19.7666 37.6833 19.6832L23.3333 16.8499V15.1499Z" fill="#9472F9"/>
<path d="M32.5007 23.333C32.9673 23.333 33.334 23.6997 33.334 24.1663C33.334 24.633 32.9673 24.9997 32.5007 24.9997H29.1673C28.7007 24.9997 28.334 24.633 28.334 24.1663C28.334 23.6997 28.7007 23.333 29.1673 23.333H32.5007Z" fill="#9472F9"/>
<path d="M32.5007 28.333C32.9673 28.333 33.334 28.6997 33.334 29.1663C33.334 29.633 32.9673 29.9997 32.5007 29.9997H29.1673C28.7007 29.9997 28.334 29.633 28.334 29.1663C28.334 28.6997 28.7007 28.333 29.1673 28.333H32.5007Z" fill="#9472F9"/>
<path d="M32.5007 33.333C32.9673 33.333 33.334 33.6997 33.334 34.1663C33.334 34.633 32.9673 34.9997 32.5007 34.9997H29.1673C28.7007 34.9997 28.334 34.633 28.334 34.1663C28.334 33.6997 28.7007 33.333 29.1673 33.333H32.5007Z" fill="#9472F9"/>
<path d="M23.3327 39.1664C23.3327 39.6331 22.966 39.9998 22.4994 39.9998C22.0327 39.9998 21.666 39.6331 21.666 39.1664V38.3331V15.8331C21.666 15.5831 21.7827 15.3497 21.966 15.1831C22.166 15.0331 22.416 14.9664 22.666 15.0164L23.3327 15.1497V16.8497V38.3331V39.1664Z" fill="#9472F9"/>
<path d="M21.6673 38.333V39.1663C21.6673 39.633 22.034 39.9997 22.5007 39.9997H15.834C16.3007 39.9997 16.6673 39.633 16.6673 39.1663V38.333H21.6673Z" fill="#9472F9"/>
<path d="M17.5007 8.33301C17.9673 8.33301 18.334 8.69967 18.334 9.16634C18.334 9.63301 17.9673 9.99967 17.5007 9.99967H14.1673C13.7007 9.99967 13.334 9.63301 13.334 9.16634C13.334 8.69967 13.7007 8.33301 14.1673 8.33301H17.5007Z" fill="#9472F9"/>
<path d="M18.334 14.1663C18.334 14.633 17.9673 14.9997 17.5007 14.9997H14.1673C13.7007 14.9997 13.334 14.633 13.334 14.1663C13.334 13.6997 13.7007 13.333 14.1673 13.333H17.5007C17.9673 13.333 18.334 13.6997 18.334 14.1663Z" fill="#9472F9"/>
<path d="M17.5007 18.333C17.9673 18.333 18.334 18.6997 18.334 19.1663C18.334 19.633 17.9673 19.9997 17.5007 19.9997H14.1673C13.7007 19.9997 13.334 19.633 13.334 19.1663C13.334 18.6997 13.7007 18.333 14.1673 18.333H17.5007Z" fill="#9472F9"/>
<path d="M17.5007 23.333C17.9673 23.333 18.334 23.6997 18.334 24.1663C18.334 24.633 17.9673 24.9997 17.5007 24.9997H14.1673C13.7007 24.9997 13.334 24.633 13.334 24.1663C13.334 23.6997 13.7007 23.333 14.1673 23.333H17.5007Z" fill="#9472F9"/>
<path d="M10 24.1663C10 24.633 9.63333 24.9997 9.16667 24.9997H5.83333C5.36667 24.9997 5 24.633 5 24.1663C5 23.6997 5.36667 23.333 5.83333 23.333H9.16667C9.63333 23.333 10 23.6997 10 24.1663Z" fill="#9472F9"/>
<path d="M9.16667 8.33301C9.63333 8.33301 10 8.69967 10 9.16634C10 9.63301 9.63333 9.99967 9.16667 9.99967H5.83333C5.36667 9.99967 5 9.63301 5 9.16634C5 8.69967 5.36667 8.33301 5.83333 8.33301H9.16667Z" fill="#9472F9"/>
<path d="M9.16667 13.333C9.63333 13.333 10 13.6997 10 14.1663C10 14.633 9.63333 14.9997 9.16667 14.9997H5.83333C5.36667 14.9997 5 14.633 5 14.1663C5 13.6997 5.36667 13.333 5.83333 13.333H9.16667Z" fill="#9472F9"/>
<path d="M9.16667 18.333C9.63333 18.333 10 18.6997 10 19.1663C10 19.633 9.63333 19.9997 9.16667 19.9997H5.83333C5.36667 19.9997 5 19.633 5 19.1663C5 18.6997 5.36667 18.333 5.83333 18.333H9.16667Z" fill="#9472F9"/>
<path d="M14.9993 30.833C14.9993 30.3663 14.616 29.9997 14.166 29.9997H9.16602C8.69935 29.9997 8.33268 30.3663 8.33268 30.833V38.333H6.66602V30.833C6.66602 29.4497 7.78268 28.333 9.16602 28.333H14.166C15.5493 28.333 16.666 29.4497 16.666 30.833V38.333H14.9993V30.833Z" fill="#9472F9"/>
<path d="M8.33268 38.333H14.9993H16.666V39.1663C16.666 39.633 16.2993 39.9997 15.8327 39.9997H7.49935C7.03268 39.9997 6.66602 39.633 6.66602 39.1663V38.333H8.33268Z" fill="#9472F9"/>
<path d="M2.91667 0.33323L21.2333 3.11656C22.45 3.31656 23.3333 4.3499 23.3333 5.58323V15.1499L22.6667 15.0166C22.4167 14.9666 22.1667 15.0332 21.9667 15.1832C21.7833 15.3499 21.6667 15.5832 21.6667 15.8332V5.58323C21.6667 5.16656 21.3667 4.81656 20.9667 4.7499L2.65 1.98323C2.6 1.96656 2.55 1.96656 2.5 1.96656C2.3 1.96656 2.11667 2.03323 1.96667 2.16656C1.76667 2.33323 1.66667 2.5499 1.66667 2.7999V37.4999C1.66667 37.9666 2.05 38.3332 2.5 38.3332H6.66667V39.1666C6.66667 39.6332 7.03333 39.9999 7.5 39.9999H2.5C1.11667 39.9999 0 38.8832 0 37.4999V2.7999C0 2.06656 0.316667 1.36656 0.883333 0.899896C1.45 0.416563 2.18333 0.216563 2.91667 0.33323Z" fill="#9472F9"/>
</g>
<defs>
<clipPath id="clip0_1_1515">
<rect width="40" height="40" fill="white"/>
</clipPath>
</defs>
</svg>
